<?xml version="1.0" encoding="utf-8"?>
<!-- Generator: Adobe Illustrator 16.0.3, SVG Export Plug-In . SVG Version: 6.00 Build 0)  -->
<!DOCTYPE svg PUBLIC "-//W3C//DTD SVG 1.1//EN" "http://www.w3.org/Graphics/SVG/1.1/DTD/svg11.dtd">
<svg version="1.1" id="Warstwa_1" xmlns="http://www.w3.org/2000/svg" xmlns:xlink="http://www.w3.org/1999/xlink" x="0px" y="0px"
	 width="250px" height="250px" viewBox="0 0 250 250" enable-background="new 0 0 250 250" xml:space="preserve">
<path id="sun" fill-rule="evenodd" clip-rule="evenodd" fill="#EC1C24" d="M131.677,2.338c55.841,0,101.123,43.334,101.123,96.775
	c0,4.121-0.272,8.181-0.795,12.171c-4.566,0.066-9.998,2.309-15.655,6.228c-1.555,1.08,6.322,17.826,5.423,19.675
	c-1.07,2.184-4.821,5.059-10.217,7.855c-13.915-19.815-27.697-52.366-10.376-82.175c-48.387-10.753-106.776-4.265-155.508,21.54
	c-1.348,14.568,1.259,26.03,6.4,35.224l-0.381-0.18c-3.063-0.069-6.124-0.139-9.183-0.205c0.065,7.045-1.038,13.721-2.921,19.879
	c-5.797-12.198-9.031-25.746-9.031-40.012C30.555,45.672,75.839,2.338,131.677,2.338L131.677,2.338z M209.554,146.04
	c-26.669-13.964-55.9-11.773-82.375,2.297c18.692,4.943,34.883,7.095,48.257,6.49C187.847,154.276,200.545,150.363,209.554,146.04
	L209.554,146.04z"/>
<path id="boud" fill-rule="evenodd" clip-rule="evenodd" fill="#231F20" d="M8.339,177.835v-0.622l0.589-0.228l0.25-0.095
	c1.587-0.611,3.377-1.603,5.28-2.923c1.928-1.343,3.953-3.017,5.984-4.99c10.478-10.135,21.362-28.201,21.156-49.726l-0.009-0.936
	l0.936,0.022l9.183,0.205l0.203,0.005l0.171,0.08l0.371,0.176l0.258,0.123l0.145,0.258c5.975,10.685,15.468,18.262,26.176,24.058
	c10.635,5.754,22.492,9.762,33.312,13.319c0.55-0.4,1.106-0.8,1.658-1.187c0.686-0.479,1.367-0.949,2.042-1.398
	c3.524-2.373,7.1-4.518,10.707-6.436l0.312-0.164l0.344,0.089l0.195,0.051h0.001c2.601,0.687,5.155,1.313,7.657,1.896
	c2.479,0.565,4.938,1.093,7.362,1.563l0,0c12.297,2.396,23.265,3.37,32.773,2.947l0.136-0.009c1.705-0.079,3.429-0.229,5.154-0.424
	c1.735-0.205,3.445-0.465,5.123-0.771c8.693-1.57,16.964-4.424,23.353-7.494l0.408-0.195l0.4,0.209
	c0.335,0.174,0.66,0.351,0.979,0.521l-0.133-0.194l-0.591-0.84l0.91-0.484l0.03-0.015l0.007-0.005
	c0.716-0.373,1.426-0.764,2.127-1.163c0.699-0.4,1.339-0.785,1.917-1.148v-0.002c3.001-1.902,5.033-3.694,5.731-5.103h-0.004
	l0.004-0.005l0,0c0.257-0.567-1.218-4.595-2.722-8.707c-1.871-5.119-3.789-10.361-2.389-11.328c4.502-3.121,8.882-5.203,12.834-6.01
	c3.466-0.709,6.612-0.445,9.248,0.939c2.637,1.388,4.728,3.881,6.059,7.625c1.352,3.796,1.927,8.912,1.502,15.499l-0.009,0.094
	v0.007c-0.089,1.345-0.357,2.813-0.769,4.373c-0.406,1.533-0.96,3.16-1.637,4.839c-3.433,8.542-10.111,18.616-17.237,25.992
	l-0.004,0.009l-0.418,0.426h-0.008c-1.705,1.729-3.528,3.315-5.418,4.76c-1.885,1.447-3.843,2.759-5.83,3.945
	c-10.094,6.012-20.101,8.62-26.394,8.745H8.339V177.835z M120.734,39.748h8.216v13.038l-8.216,1.212V39.748L120.734,39.748z"/>
<path id="sail" fill-rule="evenodd" clip-rule="evenodd" fill="#FFFFFF" d="M45.671,84.407
	c48.732-25.805,107.122-32.293,155.508-21.54c-18.422,31.701-1.665,66.508,13.025,85.792c-32.869-19.794-70.221-14.066-101.707,8.91
	C81.255,147.318,41.144,133.396,45.671,84.407L45.671,84.407z"/>
<path id="itaka" fill-rule="evenodd" clip-rule="evenodd" fill="#EC1C24" d="M7,244.065h11.681v-46.092H7V244.065L7,244.065z
	 M196.717,228.594h-14.52l7.261-11.675L196.717,228.594L196.717,228.594z M217.553,239.964l-28.095-45.455l-27.573,44.111
	l-19.149-18.229l18.313-17.679l-8.212-8.203l-21.462,20.829v-17.364h-11.995v46.092h11.995v-18.308l22.727,21.781l7.518-7.237
	l9.53,5.657l4.42-6.946h27.464l4.42,6.946L217.553,239.964L217.553,239.964z M93.495,228.594H79.288l6.943-11.675L93.495,228.594
	L93.495,228.594z M114.643,239.964l-28.412-45.455l-28.092,45.455l10.101,5.995l4.42-6.946h27.463l4.42,6.946L114.643,239.964
	L114.643,239.964z M51.509,209.029v35.036H39.515v-35.036H24.678v-11.056h41.669v11.056H51.509L51.509,209.029z"/>
</svg>
